<svg width="35" height="35" viewBox="0 0 35 35" xmlns="http://www.w3.org/2000/svg">
<path fill-rule="evenodd" clip-rule="evenodd" d="M5.46875 4.92185H15.8594C16.1614 4.92185 16.4062 5.16668 16.4062 5.46873V15.8594C16.4062 16.1614 16.1614 16.4062 15.8594 16.4062H5.46875C5.1667 16.4062 4.92188 16.1614 4.92188 15.8594V5.46873C4.92188 5.16668 5.1667 4.92185 5.46875 4.92185ZM24.7568 4.05598L30.944 10.2432C31.1576 10.4567 31.1576 10.803 30.944 11.0166L24.7568 17.2037C24.5432 17.4173 24.197 17.4173 23.9834 17.2037L17.7962 11.0165C17.5827 10.803 17.5827 10.4567 17.7962 10.2432L23.9834 4.05598C24.197 3.84242 24.5432 3.84242 24.7568 4.05598ZM5.46875 18.5937H15.8594C16.1614 18.5937 16.4062 18.8386 16.4062 19.1406V29.5312C16.4062 29.8333 16.1614 30.0781 15.8594 30.0781H5.46875C5.1667 30.0781 4.92188 29.8333 4.92188 29.5312V19.1406C4.92188 18.8386 5.1667 18.5937 5.46875 18.5937ZM19.1406 18.5937H29.5312C29.8333 18.5937 30.0781 18.8386 30.0781 19.1406V29.5312C30.0781 29.8333 29.8333 30.0781 29.5312 30.0781H19.1406C18.8386 30.0781 18.5938 29.8333 18.5938 29.5312V19.1406C18.5938 18.8386 18.8386 18.5937 19.1406 18.5937Z"/>
</svg>
